# xmcd
# Track frame offsets:
# 150
# 15407
# 34695
# 44705
# 64382
# 80075
# 93275
# 106880
# 123332
# 143197
# 160002
# 176207
# 192647
#
# Disc length: 2804 seconds
# Revision: 0
# Processed by: cddbd v1.5.1PL2 Copyright (c) Steve Scherf et al.
# Submitted via: VisiTrax 2.9.10.228 - For more info visit www.synapsa.com
#
DISCID=b40af20d
DTITLE=Refer's Blues Band - Man Undres Noget
DYEAR=1996
DGENRE=Blues
TTITLE0=Byens sukkeste
TTITLE1=Midnatsfeber
TTITLE2=Ramt lige i hjertet
TTITLE3=Vid're nu
TTITLE4=Du gav mig "The Blues"baby
TTITLE5=Sov sødt uden mig
TTITLE6=Min eneste gode ting
TTITLE7=Bajer blues
TTITLE8=Man undres noget
TTITLE9=Blues det er healing
TTITLE10=Pigen og hunden
TTITLE11=Det er lørdag
TTITLE12=Lad os mødes
EXTD=
EXTT0=
EXTT1=
EXTT2=
EXTT3=
EXTT4=
EXTT5=
EXTT6=
EXTT7=
EXTT8=
EXTT9=
EXTT10=
EXTT11=
EXTT12=
PLAYORDER=
